<svg xmlns="http://www.w3.org/2000/svg" viewBox="0 0 260 52" role="img" aria-label="Zenith Cloud">
  <defs>
    <linearGradient id="cloudBody" x1="0%" y1="0%" x2="0%" y2="100%">
      <stop offset="0%" stop-color="#c8c6c0"/>
      <stop offset="100%" stop-color="#6e6c66"/>
    </linearGradient>
    <linearGradient id="zBar" x1="0%" y1="0%" x2="100%" y2="100%">
      <stop offset="0%" stop-color="#f0d868"/>
      <stop offset="100%" stop-color="#b8860b"/>
    </linearGradient>
    <linearGradient id="zSlash" x1="100%" y1="0%" x2="0%" y2="100%">
      <stop offset="0%" stop-color="#fff0a8"/>
      <stop offset="50%" stop-color="#e8c84a"/>
      <stop offset="100%" stop-color="#9a6f00"/>
    </linearGradient>
  </defs>
  <g transform="translate(0 1) scale(0.92)">
    <path fill="url(#cloudBody)" d="M4 37.2c0-3.2 2.6-5.6 5.8-5.8.8-3.4 3.8-6 7.8-6 2.2 0 4.2.9 5.6 2.6 1.2-.3 2.4-.5 3.7-.5 4.8 0 8.7 3.9 8.7 8.6 0 4.4-3.6 7.9-8 7.9H8.2c-2.3 0-4.2-1.9-4.2-4.2z"/>
    <ellipse cx="11.5" cy="27.5" rx="5.5" ry="4" fill="#e8e6e0" opacity="0.5"/>
    <ellipse cx="24" cy="24.5" rx="7" ry="5" fill="#eceae4" opacity="0.55"/>
    <ellipse cx="36" cy="27.5" rx="5.5" ry="4" fill="#e8e6e0" opacity="0.5"/>
    <path fill="none" stroke="#d4af37" stroke-opacity="0.5" stroke-width="0.9" d="M4 37.2c0-3.2 2.6-5.6 5.8-5.8.8-3.4 3.8-6 7.8-6 2.2 0 4.2.9 5.6 2.6 1.2-.3 2.4-.5 3.7-.5 4.8 0 8.7 3.9 8.7 8.6 0 4.4-3.6 7.9-8 7.9H8.2c-2.3 0-4.2-1.9-4.2-4.2z"/>
    <rect x="11" y="6.5" width="26" height="4.8" rx="1.2" fill="url(#zBar)"/>
    <rect x="11" y="24.2" width="26" height="4.8" rx="1.2" fill="url(#zBar)"/>
    <polygon fill="url(#zSlash)" points="30,11.5 36.5,11.5 18,24.2 11.5,24.2"/>
  </g>
  <text x="58" y="33" font-family="Outfit, Inter, system-ui, sans-serif" font-size="25" font-weight="700" fill="currentColor">Zenith</text>
  <text x="142" y="33" font-family="Inter, system-ui, sans-serif" font-size="10.5" font-weight="600" letter-spacing="0.18em" fill="#c9a227">CLOUD</text>
</svg>
